<mxfile host="app.diagrams.net" agent="Mozilla/5.0 (Macintosh; Intel Mac OS X 10_15_7) AppleWebKit/537.36 (KHTML, like Gecko) Chrome/139.0.0.0 Safari/537.36" version="27.1.6">
  <diagram name="Page-1" id="hVXfUqBhvTAlDq9-gsWX">
    <mxGraphModel dx="976" dy="549" grid="0" gridSize="10" guides="1" tooltips="1" connect="1" arrows="1" fold="1" page="0" pageScale="1" pageWidth="850" pageHeight="1100" background="none" math="0" shadow="0">
      <root>
        <mxCell id="0" />
        <mxCell id="1" parent="0" />
        <mxCell id="h8j5pdW2-4rlrgCDTTLV-3" value="" style="edgeStyle=orthogonalEdgeStyle;rounded=0;orthogonalLoop=1;jettySize=auto;html=1;labelBackgroundColor=none;fontColor=default;strokeColor=#457B9D;" edge="1" parent="1" source="h8j5pdW2-4rlrgCDTTLV-1" target="h8j5pdW2-4rlrgCDTTLV-2">
          <mxGeometry relative="1" as="geometry" />
        </mxCell>
        <mxCell id="h8j5pdW2-4rlrgCDTTLV-1" value="&lt;b&gt;MRI IMAGE&lt;/b&gt;" style="rounded=1;whiteSpace=wrap;html=1;labelBackgroundColor=none;fillColor=#A8DADC;strokeColor=#457B9D;fontColor=#1D3557;" vertex="1" parent="1">
          <mxGeometry x="294" y="80" width="83" height="39" as="geometry" />
        </mxCell>
        <mxCell id="h8j5pdW2-4rlrgCDTTLV-5" value="" style="edgeStyle=orthogonalEdgeStyle;rounded=0;orthogonalLoop=1;jettySize=auto;html=1;labelBackgroundColor=none;fontColor=default;strokeColor=#457B9D;" edge="1" parent="1" source="h8j5pdW2-4rlrgCDTTLV-2" target="h8j5pdW2-4rlrgCDTTLV-4">
          <mxGeometry relative="1" as="geometry" />
        </mxCell>
        <mxCell id="h8j5pdW2-4rlrgCDTTLV-7" value="" style="edgeStyle=orthogonalEdgeStyle;rounded=0;orthogonalLoop=1;jettySize=auto;html=1;labelBackgroundColor=none;fontColor=default;strokeColor=#457B9D;" edge="1" parent="1" source="h8j5pdW2-4rlrgCDTTLV-2" target="h8j5pdW2-4rlrgCDTTLV-6">
          <mxGeometry relative="1" as="geometry">
            <Array as="points">
              <mxPoint x="440" y="175" />
            </Array>
          </mxGeometry>
        </mxCell>
        <mxCell id="h8j5pdW2-4rlrgCDTTLV-2" value="&lt;b&gt;SKULL STRIPPING&lt;/b&gt;" style="rounded=1;whiteSpace=wrap;html=1;labelBackgroundColor=none;fillColor=#A8DADC;strokeColor=#457B9D;fontColor=#1D3557;" vertex="1" parent="1">
          <mxGeometry x="294" y="155" width="83" height="39" as="geometry" />
        </mxCell>
        <mxCell id="h8j5pdW2-4rlrgCDTTLV-9" value="" style="edgeStyle=orthogonalEdgeStyle;rounded=0;orthogonalLoop=1;jettySize=auto;html=1;labelBackgroundColor=none;fontColor=default;strokeColor=#457B9D;" edge="1" parent="1" source="h8j5pdW2-4rlrgCDTTLV-4" target="h8j5pdW2-4rlrgCDTTLV-8">
          <mxGeometry relative="1" as="geometry" />
        </mxCell>
        <mxCell id="h8j5pdW2-4rlrgCDTTLV-4" value="&lt;b&gt;REGISTRATION TO MNI152&lt;/b&gt;" style="rounded=1;whiteSpace=wrap;html=1;labelBackgroundColor=none;fillColor=#A8DADC;strokeColor=#457B9D;fontColor=#1D3557;" vertex="1" parent="1">
          <mxGeometry x="175" y="245" width="110" height="39" as="geometry" />
        </mxCell>
        <mxCell id="h8j5pdW2-4rlrgCDTTLV-11" value="" style="edgeStyle=orthogonalEdgeStyle;rounded=0;orthogonalLoop=1;jettySize=auto;html=1;labelBackgroundColor=none;fontColor=default;strokeColor=#457B9D;" edge="1" parent="1" source="h8j5pdW2-4rlrgCDTTLV-6" target="h8j5pdW2-4rlrgCDTTLV-10">
          <mxGeometry relative="1" as="geometry" />
        </mxCell>
        <mxCell id="h8j5pdW2-4rlrgCDTTLV-6" value="&lt;b&gt;SEGMENTATION OF GM, WM, CSF&lt;/b&gt;" style="rounded=1;whiteSpace=wrap;html=1;labelBackgroundColor=none;fillColor=#A8DADC;strokeColor=#457B9D;fontColor=#1D3557;" vertex="1" parent="1">
          <mxGeometry x="370" y="245" width="139" height="39" as="geometry" />
        </mxCell>
        <mxCell id="h8j5pdW2-4rlrgCDTTLV-12" style="edgeStyle=orthogonalEdgeStyle;rounded=0;orthogonalLoop=1;jettySize=auto;html=1;entryX=0;entryY=0.5;entryDx=0;entryDy=0;labelBackgroundColor=none;fontColor=default;strokeColor=#457B9D;" edge="1" parent="1" source="h8j5pdW2-4rlrgCDTTLV-8" target="h8j5pdW2-4rlrgCDTTLV-10">
          <mxGeometry relative="1" as="geometry">
            <Array as="points">
              <mxPoint x="329" y="343" />
            </Array>
          </mxGeometry>
        </mxCell>
        <mxCell id="h8j5pdW2-4rlrgCDTTLV-8" value="&lt;b&gt;TRANSFORMATION MATRIX&lt;/b&gt;" style="rounded=1;whiteSpace=wrap;html=1;labelBackgroundColor=none;fillColor=#A8DADC;strokeColor=#457B9D;fontColor=#1D3557;" vertex="1" parent="1">
          <mxGeometry x="168.25" y="335" width="123.5" height="39" as="geometry" />
        </mxCell>
        <mxCell id="h8j5pdW2-4rlrgCDTTLV-14" value="" style="edgeStyle=orthogonalEdgeStyle;rounded=0;orthogonalLoop=1;jettySize=auto;html=1;labelBackgroundColor=none;fontColor=default;strokeColor=#457B9D;" edge="1" parent="1" source="h8j5pdW2-4rlrgCDTTLV-10" target="h8j5pdW2-4rlrgCDTTLV-13">
          <mxGeometry relative="1" as="geometry" />
        </mxCell>
        <mxCell id="h8j5pdW2-4rlrgCDTTLV-10" value="&lt;b&gt;X&lt;/b&gt;" style="ellipse;whiteSpace=wrap;html=1;aspect=fixed;labelBackgroundColor=none;fillColor=#A8DADC;strokeColor=#457B9D;fontColor=#1D3557;" vertex="1" parent="1">
          <mxGeometry x="426.5" y="330" width="26" height="26" as="geometry" />
        </mxCell>
        <mxCell id="h8j5pdW2-4rlrgCDTTLV-13" value="&lt;b&gt;REGISTRATION TO MNI152&lt;/b&gt;" style="rounded=1;whiteSpace=wrap;html=1;labelBackgroundColor=none;fillColor=#A8DADC;strokeColor=#457B9D;fontColor=#1D3557;" vertex="1" parent="1">
          <mxGeometry x="384.5" y="405" width="110" height="39" as="geometry" />
        </mxCell>
        <mxCell id="h8j5pdW2-4rlrgCDTTLV-19" value="" style="curved=1;endArrow=classic;html=1;rounded=0;labelBackgroundColor=none;fontColor=default;strokeColor=#457B9D;" edge="1" parent="1">
          <mxGeometry width="50" height="50" relative="1" as="geometry">
            <mxPoint x="381" y="158" as="sourcePoint" />
            <mxPoint x="467" y="99" as="targetPoint" />
            <Array as="points">
              <mxPoint x="467" y="149" />
              <mxPoint x="417" y="99" />
            </Array>
          </mxGeometry>
        </mxCell>
        <mxCell id="h8j5pdW2-4rlrgCDTTLV-21" value="" style="strokeWidth=2;html=1;shape=mxgraph.flowchart.annotation_2;align=left;labelPosition=right;pointerEvents=1;labelBackgroundColor=none;fillColor=#A8DADC;strokeColor=#457B9D;fontColor=#1D3557;" vertex="1" parent="1">
          <mxGeometry x="467" y="70.5" width="50" height="58" as="geometry" />
        </mxCell>
        <mxCell id="h8j5pdW2-4rlrgCDTTLV-22" value="&lt;div&gt;&lt;b&gt;Outputs:&lt;/b&gt;&lt;/div&gt;&lt;div&gt;&lt;b style=&quot;background-color: transparent; color: light-dark(rgb(0, 0, 0), rgb(255, 255, 255));&quot;&gt;1. MRI_brain.nii.gz&lt;/b&gt;&lt;/div&gt;" style="text;html=1;align=left;verticalAlign=middle;resizable=0;points=[];autosize=1;strokeColor=none;fillColor=none;labelBackgroundColor=none;fontColor=#1D3557;" vertex="1" parent="1">
          <mxGeometry x="498" y="79" width="123" height="41" as="geometry" />
        </mxCell>
        <mxCell id="h8j5pdW2-4rlrgCDTTLV-23" value="" style="strokeWidth=2;html=1;shape=mxgraph.flowchart.annotation_2;align=left;labelPosition=right;pointerEvents=1;rotation=0;labelBackgroundColor=none;fillColor=#A8DADC;strokeColor=#457B9D;fontColor=#1D3557;" vertex="1" parent="1">
          <mxGeometry x="160" y="415.5" width="50" height="58" as="geometry" />
        </mxCell>
        <mxCell id="h8j5pdW2-4rlrgCDTTLV-24" value="&lt;div&gt;&lt;b&gt;Outputs:&lt;/b&gt;&lt;/div&gt;&lt;div&gt;&lt;b style=&quot;background-color: transparent; color: light-dark(rgb(0, 0, 0), rgb(255, 255, 255));&quot;&gt;1. MRI_brain_MNI.nii.gz&lt;/b&gt;&lt;/div&gt;" style="text;html=1;align=left;verticalAlign=middle;resizable=0;points=[];autosize=1;strokeColor=none;fillColor=none;labelBackgroundColor=none;fontColor=#1D3557;" vertex="1" parent="1">
          <mxGeometry x="191" y="424" width="152" height="41" as="geometry" />
        </mxCell>
        <mxCell id="h8j5pdW2-4rlrgCDTTLV-25" value="" style="strokeWidth=2;html=1;shape=mxgraph.flowchart.annotation_2;align=left;labelPosition=right;pointerEvents=1;labelBackgroundColor=none;fillColor=#A8DADC;strokeColor=#457B9D;fontColor=#1D3557;" vertex="1" parent="1">
          <mxGeometry x="512" y="225" width="50" height="81" as="geometry" />
        </mxCell>
        <mxCell id="h8j5pdW2-4rlrgCDTTLV-26" value="&lt;div&gt;&lt;b&gt;Outputs:&lt;/b&gt;&lt;/div&gt;&lt;div&gt;&lt;b style=&quot;background-color: transparent; color: light-dark(rgb(0, 0, 0), rgb(255, 255, 255));&quot;&gt;1. MRI_GM_native.nii.gz&lt;/b&gt;&lt;/div&gt;&lt;div&gt;&lt;b style=&quot;color: light-dark(rgb(0, 0, 0), rgb(255, 255, 255)); background-color: transparent;&quot;&gt;2. MRI_WM_native.nii.gz&lt;/b&gt;&lt;b style=&quot;background-color: transparent; color: light-dark(rgb(0, 0, 0), rgb(255, 255, 255));&quot;&gt;&lt;/b&gt;&lt;/div&gt;&lt;div&gt;&lt;b style=&quot;color: light-dark(rgb(0, 0, 0), rgb(255, 255, 255)); background-color: transparent;&quot;&gt;3. MRI_CSF_native.nii.gz&lt;/b&gt;&lt;b style=&quot;color: light-dark(rgb(0, 0, 0), rgb(255, 255, 255)); background-color: transparent;&quot;&gt;&lt;/b&gt;&lt;/div&gt;" style="text;html=1;align=left;verticalAlign=middle;resizable=0;points=[];autosize=1;strokeColor=none;fillColor=none;labelBackgroundColor=none;fontColor=#1D3557;" vertex="1" parent="1">
          <mxGeometry x="543" y="230" width="159" height="70" as="geometry" />
        </mxCell>
        <mxCell id="h8j5pdW2-4rlrgCDTTLV-28" value="&lt;div&gt;&lt;b&gt;Outputs:&lt;/b&gt;&lt;/div&gt;&lt;div&gt;&lt;b style=&quot;background-color: transparent; color: light-dark(rgb(0, 0, 0), rgb(255, 255, 255));&quot;&gt;1. MRI_GM_MNI.nii.gz&lt;/b&gt;&lt;/div&gt;&lt;div&gt;&lt;b style=&quot;color: light-dark(rgb(0, 0, 0), rgb(255, 255, 255)); background-color: transparent;&quot;&gt;2. MRI_WM_MNI.nii.gz&lt;/b&gt;&lt;b style=&quot;background-color: transparent; color: light-dark(rgb(0, 0, 0), rgb(255, 255, 255));&quot;&gt;&lt;/b&gt;&lt;/div&gt;&lt;div&gt;&lt;b style=&quot;color: light-dark(rgb(0, 0, 0), rgb(255, 255, 255)); background-color: transparent;&quot;&gt;3. MRI_CSF_MNI.nii.gz&lt;/b&gt;&lt;b style=&quot;color: light-dark(rgb(0, 0, 0), rgb(255, 255, 255)); background-color: transparent;&quot;&gt;&lt;/b&gt;&lt;/div&gt;" style="text;html=1;align=left;verticalAlign=middle;resizable=0;points=[];autosize=1;strokeColor=none;fillColor=none;labelBackgroundColor=none;fontColor=#1D3557;" vertex="1" parent="1">
          <mxGeometry x="530" y="389" width="147" height="70" as="geometry" />
        </mxCell>
        <mxCell id="h8j5pdW2-4rlrgCDTTLV-30" value="" style="strokeWidth=2;html=1;shape=mxgraph.flowchart.annotation_2;align=left;labelPosition=right;pointerEvents=1;labelBackgroundColor=none;fillColor=#A8DADC;strokeColor=#457B9D;fontColor=#1D3557;" vertex="1" parent="1">
          <mxGeometry x="498" y="384" width="50" height="81" as="geometry" />
        </mxCell>
        <mxCell id="h8j5pdW2-4rlrgCDTTLV-31" value="" style="curved=1;endArrow=classic;html=1;rounded=0;entryX=0;entryY=0.5;entryDx=0;entryDy=0;entryPerimeter=0;labelBackgroundColor=none;fontColor=default;strokeColor=#457B9D;" edge="1" parent="1" target="h8j5pdW2-4rlrgCDTTLV-23">
          <mxGeometry width="50" height="50" relative="1" as="geometry">
            <mxPoint x="170" y="267" as="sourcePoint" />
            <mxPoint x="152" y="445" as="targetPoint" />
            <Array as="points">
              <mxPoint x="142" y="297" />
              <mxPoint x="131" y="357" />
              <mxPoint x="136" y="412" />
            </Array>
          </mxGeometry>
        </mxCell>
        <mxCell id="h8j5pdW2-4rlrgCDTTLV-33" value="" style="strokeWidth=2;html=1;shape=mxgraph.flowchart.annotation_2;align=left;labelPosition=right;pointerEvents=1;rotation=-180;labelBackgroundColor=none;fillColor=#A8DADC;strokeColor=#457B9D;fontColor=#1D3557;" vertex="1" parent="1">
          <mxGeometry x="244" y="70.5" width="50" height="58" as="geometry" />
        </mxCell>
        <mxCell id="h8j5pdW2-4rlrgCDTTLV-34" value="&lt;div&gt;&lt;b&gt;T1&lt;/b&gt;&lt;/div&gt;&lt;div&gt;&lt;b&gt;T2&lt;/b&gt;&lt;/div&gt;&lt;div&gt;&lt;b&gt;Flair&lt;/b&gt;&lt;/div&gt;" style="text;html=1;align=right;verticalAlign=middle;resizable=0;points=[];autosize=1;strokeColor=none;fillColor=none;labelBackgroundColor=none;fontColor=#1D3557;" vertex="1" parent="1">
          <mxGeometry x="220" y="73.5" width="43" height="55" as="geometry" />
        </mxCell>
      </root>
    </mxGraphModel>
  </diagram>
</mxfile>
